Coordinates
version=1
nRows=5
nColumns=42
inDegrees=yes

Units are S.I. units (second, meters, Newtons, ...)
If the header above contains a line with 'inDegrees', this indicates whether rotational values are in degrees (yes) or radians (no).

endheader
time	pelvis_tilt	pelvis_list	pelvis_rotation	pelvis_tx	pelvis_ty	pelvis_tz	hip_flexion_r	hip_adduction_r	hip_rotation_r	knee_angle_r	knee_angle_r_beta	ankle_angle_r	subtalar_angle_r	mtp_angle_r	hip_flexion_l	hip_adduction_l	hip_rotation_l	knee_angle_l	knee_angle_l_beta	ankle_angle_l	subtalar_angle_l	mtp_angle_l	lumbar_extension	lumbar_bending	lumbar_rotation	sh_tx_r	sh_ty_r	sh_tz_r	sh_plane_elev_r	sh_elev_r	sh_axial_rot_r	elbow_flex_r	pro_sup_r	sh_tx_l	sh_ty_l	sh_tz_l	sh_plane_elev_l	sh_elev_l	sh_axial_rot_l	elbow_flex_l	pro_sup_l
      2.01694910	     -9.92841997	     -0.34401088	     -0.74171162	      0.29954783	      0.92671860	     -0.00343892	      7.23859151	     -5.67828219	    -11.88055385	      1.63278207	      0.02849742	     -0.65507079	    -11.74244713	     -7.49999986	      9.57551449	     -3.48142125	    -12.32168634	      3.27548779	      0.05716805	      6.57641869	     -3.50104821	     -7.49999986	      6.15466250	      2.53609504	     -7.74053070	      0.01033640	     -0.01733651	     -0.00536662	      6.95663176	      4.79163743	     -2.76125720	     25.20106884	     64.63226502	      0.00302617	      0.00315285	     -0.00487593	     63.40077557	     44.44577261	    -38.23507917	     34.73406425	     17.85126568
      2.03389830	     -9.92516377	     -0.37030285	     -0.64195321	      0.30344044	      0.92331168	     -0.00783262	      7.18365097	     -5.67594423	    -12.03341063	      1.60229682	      0.02796536	     -0.77290847	    -11.58509935	     -7.49999986	      9.61407910	     -3.51423824	    -12.43206025	      3.34137764	      0.05831804	      6.49373462	     -3.42262370	     -7.49999986	      6.20433661	      2.59367625	     -8.84788068	      0.01301081	     -0.01727854	     -0.00547039	      8.04863919	      4.78747054	     -2.88801799	     25.21138758	     64.14831913	      0.00050680	      0.00413097	     -0.00488587	     62.32465572	     44.78112274	    -38.82685483	     34.67689325	     19.07523424
      2.05084750	     -9.91685172	     -0.37203390	     -0.63187996	      0.30337849	      0.92020739	     -0.00794481	      7.16186289	     -5.72989998	    -11.99568903	      1.64198317	      0.02865801	     -0.69824885	    -11.43824979	     -7.49999987	      9.62529684	     -3.48213447	    -12.50642848	      3.38134624	      0.05901563	      6.63333561	     -3.35992410	     -7.49999987	      6.10316170	      2.65166686	     -7.75278333	      0.00891595	     -0.01726647	     -0.00537228	      5.40937730	      4.71443244	     -2.06285267	     25.24357009	     66.21576859	      0.00132643	      0.00439982	     -0.00493348	     64.01882959	     45.67361708	    -39.01387576	     33.85419442	     15.69085674
      2.06779660	    -10.11271389	     -0.31209781	     -0.59645502	      0.29909486	      0.92302175	     -0.01231178	      7.43423928	     -5.95173007	    -12.00588252	      1.69401676	      0.02956617	     -0.65809652	    -11.21500997	     -7.49999987	      9.86536140	     -3.31627346	    -12.56796567	      3.29655972	      0.05753582	      6.57633419	     -3.26572705	     -7.49999987	      6.50805678	      2.72478069	     -7.90272873	      0.00925482	     -0.01717614	     -0.00533203	      6.00031124	      4.93925313	     -1.74924919	     24.93551710	     65.85636408	      0.00377979	      0.00573232	     -0.00513405	     63.66993253	     45.53814665	    -39.56565977	     34.62910036	     18.58648868
      2.08474580	    -10.06282305	     -0.31476068	     -0.45358460	      0.29481391	      0.92603134	     -0.00775975	      7.43711320	     -6.01660223	    -11.89427251	      1.63087319	      0.02846411	     -0.63117088	    -11.12358284	     -7.49999987	     10.00651796	     -3.26600576	    -12.41987733	      3.41555825	      0.05961274	      6.58448704	     -3.25722521	     -7.49999987	      6.08533114	      2.73051749	     -7.58555626	      0.00823527	     -0.01717969	     -0.00533476	      6.09176776	      4.88350331	     -2.54270238	     25.20269809	     66.82689634	      0.00112146	      0.00497474	     -0.00489240	     65.95976427	     47.47065185	    -40.24720563	     32.02333485	     14.25867459
